<mxfile host="app.diagrams.net" modified="2021-03-31T14:24:35.227Z" agent="5.0 (Windows NT 6.3; Win64; x64) AppleWebKit/537.36 (KHTML, like Gecko) Chrome/89.0.4389.90 Safari/537.36" etag="ysKkEgFTmD6Pk90cTQTu" version="14.5.3" type="github" pages="2">
  <diagram id="I9HKCm_AnJiskgjLkDnU" name="Общая архитектура">
    <mxGraphModel dx="1102" dy="582" grid="1" gridSize="10" guides="1" tooltips="1" connect="1" arrows="1" fold="1" page="1" pageScale="1" pageWidth="827" pageHeight="1169" math="0" shadow="0">
      <root>
        <mxCell id="0" />
        <mxCell id="1" parent="0" />
        <mxCell id="pjuRVojb6vQ-jSIAQVRx-33" value="" style="ellipse;whiteSpace=wrap;html=1;align=center;" parent="1" vertex="1">
          <mxGeometry x="60" y="96" width="230" height="80" as="geometry" />
        </mxCell>
        <mxCell id="pjuRVojb6vQ-jSIAQVRx-5" value="Почтовый сервер" style="ellipse;whiteSpace=wrap;html=1;aspect=fixed;" parent="1" vertex="1">
          <mxGeometry x="310" y="190" width="80" height="80" as="geometry" />
        </mxCell>
        <mxCell id="pjuRVojb6vQ-jSIAQVRx-6" value="API Сервер" style="ellipse;whiteSpace=wrap;html=1;aspect=fixed;" parent="1" vertex="1">
          <mxGeometry x="210" y="290" width="80" height="80" as="geometry" />
        </mxCell>
        <mxCell id="pjuRVojb6vQ-jSIAQVRx-7" value="MSSQL база данных" style="ellipse;whiteSpace=wrap;html=1;aspect=fixed;" parent="1" vertex="1">
          <mxGeometry x="110" y="190" width="80" height="80" as="geometry" />
        </mxCell>
        <mxCell id="pjuRVojb6vQ-jSIAQVRx-8" value="SQLite база данных" style="ellipse;whiteSpace=wrap;html=1;aspect=fixed;" parent="1" vertex="1">
          <mxGeometry x="310" y="600" width="80" height="80" as="geometry" />
        </mxCell>
        <mxCell id="pjuRVojb6vQ-jSIAQVRx-9" value="Backup сервер" style="ellipse;whiteSpace=wrap;html=1;aspect=fixed;" parent="1" vertex="1">
          <mxGeometry x="210" y="490" width="80" height="80" as="geometry" />
        </mxCell>
        <mxCell id="pjuRVojb6vQ-jSIAQVRx-10" value="Приложение (WPF)" style="ellipse;whiteSpace=wrap;html=1;aspect=fixed;" parent="1" vertex="1">
          <mxGeometry x="110" y="600" width="80" height="80" as="geometry" />
        </mxCell>
        <mxCell id="pjuRVojb6vQ-jSIAQVRx-11" value="databasebackupper.com" style="rounded=0;whiteSpace=wrap;html=1;rotation=0;" parent="1" vertex="1">
          <mxGeometry x="180" y="40" width="340" height="40" as="geometry" />
        </mxCell>
        <mxCell id="pjuRVojb6vQ-jSIAQVRx-14" value="mail.databasebackupper.com&lt;br&gt;api.databasebackupper.com" style="text;html=1;strokeColor=none;fillColor=none;align=left;verticalAlign=middle;whiteSpace=wrap;rounded=0;" parent="1" vertex="1">
          <mxGeometry x="550" y="25" width="220" height="70" as="geometry" />
        </mxCell>
        <mxCell id="pjuRVojb6vQ-jSIAQVRx-16" value="" style="endArrow=classic;startArrow=classic;html=1;entryX=0;entryY=0;entryDx=0;entryDy=0;exitX=1;exitY=1;exitDx=0;exitDy=0;" parent="1" source="pjuRVojb6vQ-jSIAQVRx-9" target="pjuRVojb6vQ-jSIAQVRx-8" edge="1">
          <mxGeometry width="50" height="50" relative="1" as="geometry">
            <mxPoint x="390" y="480" as="sourcePoint" />
            <mxPoint x="440" y="430" as="targetPoint" />
          </mxGeometry>
        </mxCell>
        <mxCell id="pjuRVojb6vQ-jSIAQVRx-17" value="" style="endArrow=classic;startArrow=classic;html=1;exitX=1;exitY=0;exitDx=0;exitDy=0;entryX=0;entryY=1;entryDx=0;entryDy=0;" parent="1" source="pjuRVojb6vQ-jSIAQVRx-10" target="pjuRVojb6vQ-jSIAQVRx-9" edge="1">
          <mxGeometry width="50" height="50" relative="1" as="geometry">
            <mxPoint x="390" y="480" as="sourcePoint" />
            <mxPoint x="440" y="430" as="targetPoint" />
          </mxGeometry>
        </mxCell>
        <mxCell id="pjuRVojb6vQ-jSIAQVRx-18" value="" style="endArrow=classic;startArrow=classic;html=1;exitX=0.5;exitY=0;exitDx=0;exitDy=0;entryX=0.5;entryY=1;entryDx=0;entryDy=0;" parent="1" source="pjuRVojb6vQ-jSIAQVRx-9" target="pjuRVojb6vQ-jSIAQVRx-6" edge="1">
          <mxGeometry width="50" height="50" relative="1" as="geometry">
            <mxPoint x="390" y="480" as="sourcePoint" />
            <mxPoint x="440" y="430" as="targetPoint" />
          </mxGeometry>
        </mxCell>
        <mxCell id="pjuRVojb6vQ-jSIAQVRx-19" value="" style="endArrow=classic;startArrow=classic;html=1;exitX=1;exitY=0;exitDx=0;exitDy=0;entryX=0;entryY=1;entryDx=0;entryDy=0;" parent="1" source="pjuRVojb6vQ-jSIAQVRx-6" target="pjuRVojb6vQ-jSIAQVRx-5" edge="1">
          <mxGeometry width="50" height="50" relative="1" as="geometry">
            <mxPoint x="390" y="480" as="sourcePoint" />
            <mxPoint x="440" y="430" as="targetPoint" />
          </mxGeometry>
        </mxCell>
        <mxCell id="pjuRVojb6vQ-jSIAQVRx-20" value="" style="endArrow=classic;startArrow=classic;html=1;entryX=1;entryY=1;entryDx=0;entryDy=0;" parent="1" source="pjuRVojb6vQ-jSIAQVRx-6" target="pjuRVojb6vQ-jSIAQVRx-7" edge="1">
          <mxGeometry width="50" height="50" relative="1" as="geometry">
            <mxPoint x="390" y="480" as="sourcePoint" />
            <mxPoint x="440" y="430" as="targetPoint" />
          </mxGeometry>
        </mxCell>
        <mxCell id="pjuRVojb6vQ-jSIAQVRx-21" value="" style="endArrow=none;dashed=1;html=1;" parent="1" edge="1">
          <mxGeometry width="50" height="50" relative="1" as="geometry">
            <mxPoint x="70" y="430" as="sourcePoint" />
            <mxPoint x="780" y="430" as="targetPoint" />
          </mxGeometry>
        </mxCell>
        <mxCell id="pjuRVojb6vQ-jSIAQVRx-22" value="&lt;h1&gt;VDS&lt;/h1&gt;" style="text;html=1;strokeColor=none;fillColor=none;spacing=5;spacingTop=-20;whiteSpace=wrap;overflow=hidden;rounded=0;align=left;" parent="1" vertex="1">
          <mxGeometry x="630" y="240" width="60" height="40" as="geometry" />
        </mxCell>
        <mxCell id="pjuRVojb6vQ-jSIAQVRx-23" value="&lt;h1&gt;Локальная машина клиента&lt;/h1&gt;" style="text;html=1;strokeColor=none;fillColor=none;spacing=5;spacingTop=-20;whiteSpace=wrap;overflow=hidden;rounded=0;align=left;" parent="1" vertex="1">
          <mxGeometry x="600" y="500" width="210" height="110" as="geometry" />
        </mxCell>
        <mxCell id="pjuRVojb6vQ-jSIAQVRx-24" value="1. Бэкап баз данных на локальную машину&lt;br&gt;2. Восстановление резервных копий&lt;br&gt;3. Выполнение задач по расписанию&lt;br&gt;4. Работа с локальной базой данных" style="text;html=1;strokeColor=none;fillColor=none;align=left;verticalAlign=middle;whiteSpace=wrap;rounded=0;" parent="1" vertex="1">
          <mxGeometry x="330" y="500" width="240" height="60" as="geometry" />
        </mxCell>
        <mxCell id="pjuRVojb6vQ-jSIAQVRx-25" value="1. OAuth аутентификация и авторизация в Google, Yandex, Dropbox&lt;br&gt;2. Хранение и выдача токенов доступа клиентам&lt;br&gt;3. Выполнение задач по уведомления пользователей об исходе задач" style="text;html=1;strokeColor=none;fillColor=none;align=left;verticalAlign=middle;whiteSpace=wrap;rounded=0;" parent="1" vertex="1">
          <mxGeometry x="310" y="310" width="310" height="60" as="geometry" />
        </mxCell>
        <mxCell id="pjuRVojb6vQ-jSIAQVRx-27" value="" style="endArrow=classic;startArrow=classic;html=1;exitX=0.5;exitY=0;exitDx=0;exitDy=0;entryX=0.5;entryY=1;entryDx=0;entryDy=0;" parent="1" source="pjuRVojb6vQ-jSIAQVRx-5" target="pjuRVojb6vQ-jSIAQVRx-11" edge="1">
          <mxGeometry width="50" height="50" relative="1" as="geometry">
            <mxPoint x="390" y="280" as="sourcePoint" />
            <mxPoint x="440" y="230" as="targetPoint" />
          </mxGeometry>
        </mxCell>
        <mxCell id="pjuRVojb6vQ-jSIAQVRx-28" value="Google" style="ellipse;whiteSpace=wrap;html=1;aspect=fixed;align=center;" parent="1" vertex="1">
          <mxGeometry x="90" y="110" width="50" height="50" as="geometry" />
        </mxCell>
        <mxCell id="pjuRVojb6vQ-jSIAQVRx-29" value="Yandex" style="ellipse;whiteSpace=wrap;html=1;aspect=fixed;align=center;" parent="1" vertex="1">
          <mxGeometry x="150" y="110" width="50" height="50" as="geometry" />
        </mxCell>
        <mxCell id="pjuRVojb6vQ-jSIAQVRx-30" value="Dropbox" style="ellipse;whiteSpace=wrap;html=1;aspect=fixed;align=center;" parent="1" vertex="1">
          <mxGeometry x="210" y="110" width="50" height="50" as="geometry" />
        </mxCell>
        <mxCell id="pjuRVojb6vQ-jSIAQVRx-35" value="" style="endArrow=classic;startArrow=classic;html=1;exitX=0.5;exitY=0;exitDx=0;exitDy=0;entryX=0.5;entryY=1;entryDx=0;entryDy=0;" parent="1" source="pjuRVojb6vQ-jSIAQVRx-6" target="pjuRVojb6vQ-jSIAQVRx-33" edge="1">
          <mxGeometry width="50" height="50" relative="1" as="geometry">
            <mxPoint x="390" y="380" as="sourcePoint" />
            <mxPoint x="440" y="330" as="targetPoint" />
          </mxGeometry>
        </mxCell>
        <mxCell id="pjuRVojb6vQ-jSIAQVRx-36" value="REST API" style="text;html=1;strokeColor=none;fillColor=none;align=center;verticalAlign=middle;whiteSpace=wrap;rounded=0;" parent="1" vertex="1">
          <mxGeometry x="130" y="560" width="70" height="30" as="geometry" />
        </mxCell>
        <mxCell id="pjuRVojb6vQ-jSIAQVRx-37" value="REST API" style="text;html=1;strokeColor=none;fillColor=none;align=center;verticalAlign=middle;whiteSpace=wrap;rounded=0;" parent="1" vertex="1">
          <mxGeometry x="180" y="400" width="70" height="30" as="geometry" />
        </mxCell>
      </root>
    </mxGraphModel>
  </diagram>
  <diagram id="0nFoPd6HCGNYFH0y2hYy" name="Общая архитектура 2">
    <mxGraphModel dx="1102" dy="582" grid="1" gridSize="10" guides="1" tooltips="1" connect="1" arrows="1" fold="1" page="1" pageScale="1" pageWidth="827" pageHeight="1169" math="0" shadow="0">
      <root>
        <mxCell id="IwBESx14qaUqR3blI1wj-0" />
        <mxCell id="IwBESx14qaUqR3blI1wj-1" parent="IwBESx14qaUqR3blI1wj-0" />
        <mxCell id="IwBESx14qaUqR3blI1wj-10" style="edgeStyle=orthogonalEdgeStyle;rounded=0;orthogonalLoop=1;jettySize=auto;html=1;exitX=0.25;exitY=1;exitDx=0;exitDy=0;entryX=0.25;entryY=0;entryDx=0;entryDy=0;dashed=1;" edge="1" parent="IwBESx14qaUqR3blI1wj-1" source="IwBESx14qaUqR3blI1wj-2" target="IwBESx14qaUqR3blI1wj-4">
          <mxGeometry relative="1" as="geometry" />
        </mxCell>
        <mxCell id="IwBESx14qaUqR3blI1wj-2" value="Model" style="rounded=0;whiteSpace=wrap;html=1;" vertex="1" parent="IwBESx14qaUqR3blI1wj-1">
          <mxGeometry x="120" y="210" width="120" height="60" as="geometry" />
        </mxCell>
        <mxCell id="IwBESx14qaUqR3blI1wj-8" style="edgeStyle=orthogonalEdgeStyle;rounded=0;orthogonalLoop=1;jettySize=auto;html=1;exitX=0.75;exitY=0;exitDx=0;exitDy=0;entryX=0.75;entryY=1;entryDx=0;entryDy=0;dashed=1;" edge="1" parent="IwBESx14qaUqR3blI1wj-1" source="IwBESx14qaUqR3blI1wj-3" target="IwBESx14qaUqR3blI1wj-4">
          <mxGeometry relative="1" as="geometry" />
        </mxCell>
        <mxCell id="IwBESx14qaUqR3blI1wj-3" value="View" style="rounded=0;whiteSpace=wrap;html=1;" vertex="1" parent="IwBESx14qaUqR3blI1wj-1">
          <mxGeometry x="120" y="470" width="120" height="60" as="geometry" />
        </mxCell>
        <mxCell id="IwBESx14qaUqR3blI1wj-7" style="edgeStyle=orthogonalEdgeStyle;rounded=0;orthogonalLoop=1;jettySize=auto;html=1;exitX=0.25;exitY=1;exitDx=0;exitDy=0;entryX=0.25;entryY=0;entryDx=0;entryDy=0;dashed=1;" edge="1" parent="IwBESx14qaUqR3blI1wj-1" source="IwBESx14qaUqR3blI1wj-4" target="IwBESx14qaUqR3blI1wj-3">
          <mxGeometry relative="1" as="geometry" />
        </mxCell>
        <mxCell id="IwBESx14qaUqR3blI1wj-11" style="edgeStyle=orthogonalEdgeStyle;rounded=0;orthogonalLoop=1;jettySize=auto;html=1;exitX=0.75;exitY=0;exitDx=0;exitDy=0;entryX=0.75;entryY=1;entryDx=0;entryDy=0;" edge="1" parent="IwBESx14qaUqR3blI1wj-1" source="IwBESx14qaUqR3blI1wj-4" target="IwBESx14qaUqR3blI1wj-2">
          <mxGeometry relative="1" as="geometry" />
        </mxCell>
        <mxCell id="IwBESx14qaUqR3blI1wj-19" style="edgeStyle=orthogonalEdgeStyle;rounded=0;orthogonalLoop=1;jettySize=auto;html=1;exitX=1;exitY=0.25;exitDx=0;exitDy=0;entryX=0;entryY=0.25;entryDx=0;entryDy=0;" edge="1" parent="IwBESx14qaUqR3blI1wj-1" source="IwBESx14qaUqR3blI1wj-4" target="IwBESx14qaUqR3blI1wj-14">
          <mxGeometry relative="1" as="geometry" />
        </mxCell>
        <mxCell id="IwBESx14qaUqR3blI1wj-4" value="ViewModel" style="rounded=0;whiteSpace=wrap;html=1;" vertex="1" parent="IwBESx14qaUqR3blI1wj-1">
          <mxGeometry x="120" y="340" width="120" height="60" as="geometry" />
        </mxCell>
        <mxCell id="IwBESx14qaUqR3blI1wj-5" value="Фронтенд - WPF" style="text;html=1;strokeColor=none;fillColor=none;align=center;verticalAlign=middle;whiteSpace=wrap;rounded=0;" vertex="1" parent="IwBESx14qaUqR3blI1wj-1">
          <mxGeometry x="120" y="550" width="120" height="20" as="geometry" />
        </mxCell>
        <mxCell id="IwBESx14qaUqR3blI1wj-16" style="edgeStyle=orthogonalEdgeStyle;rounded=0;orthogonalLoop=1;jettySize=auto;html=1;exitX=0.5;exitY=0;exitDx=0;exitDy=0;entryX=0.5;entryY=1;entryDx=0;entryDy=0;" edge="1" parent="IwBESx14qaUqR3blI1wj-1" source="IwBESx14qaUqR3blI1wj-12" target="IwBESx14qaUqR3blI1wj-14">
          <mxGeometry relative="1" as="geometry" />
        </mxCell>
        <mxCell id="IwBESx14qaUqR3blI1wj-12" value="WinForms" style="rounded=0;whiteSpace=wrap;html=1;" vertex="1" parent="IwBESx14qaUqR3blI1wj-1">
          <mxGeometry x="340" y="470" width="120" height="60" as="geometry" />
        </mxCell>
        <mxCell id="IwBESx14qaUqR3blI1wj-13" value="Приложение-хост для локального веб сервера бэкапов, работает в трее, без форм" style="text;html=1;strokeColor=none;fillColor=none;align=center;verticalAlign=middle;whiteSpace=wrap;rounded=0;" vertex="1" parent="IwBESx14qaUqR3blI1wj-1">
          <mxGeometry x="340" y="550" width="120" height="50" as="geometry" />
        </mxCell>
        <mxCell id="IwBESx14qaUqR3blI1wj-20" style="edgeStyle=orthogonalEdgeStyle;rounded=0;orthogonalLoop=1;jettySize=auto;html=1;exitX=0;exitY=0.75;exitDx=0;exitDy=0;entryX=1;entryY=0.75;entryDx=0;entryDy=0;dashed=1;" edge="1" parent="IwBESx14qaUqR3blI1wj-1" source="IwBESx14qaUqR3blI1wj-14" target="IwBESx14qaUqR3blI1wj-4">
          <mxGeometry relative="1" as="geometry" />
        </mxCell>
        <mxCell id="IwBESx14qaUqR3blI1wj-24" style="edgeStyle=orthogonalEdgeStyle;rounded=0;orthogonalLoop=1;jettySize=auto;html=1;exitX=0.25;exitY=0;exitDx=0;exitDy=0;entryX=0.25;entryY=1;entryDx=0;entryDy=0;" edge="1" parent="IwBESx14qaUqR3blI1wj-1" source="IwBESx14qaUqR3blI1wj-14" target="IwBESx14qaUqR3blI1wj-23">
          <mxGeometry relative="1" as="geometry" />
        </mxCell>
        <mxCell id="IwBESx14qaUqR3blI1wj-40" style="edgeStyle=orthogonalEdgeStyle;rounded=0;orthogonalLoop=1;jettySize=auto;html=1;exitX=1;exitY=0.25;exitDx=0;exitDy=0;entryX=0;entryY=0.25;entryDx=0;entryDy=0;" edge="1" parent="IwBESx14qaUqR3blI1wj-1" source="IwBESx14qaUqR3blI1wj-14" target="IwBESx14qaUqR3blI1wj-28">
          <mxGeometry relative="1" as="geometry" />
        </mxCell>
        <mxCell id="IwBESx14qaUqR3blI1wj-14" value="ASP .NET Core + Identity +&lt;br&gt;signalR Hub" style="rounded=0;whiteSpace=wrap;html=1;" vertex="1" parent="IwBESx14qaUqR3blI1wj-1">
          <mxGeometry x="340" y="340" width="120" height="60" as="geometry" />
        </mxCell>
        <mxCell id="IwBESx14qaUqR3blI1wj-17" value="Хостит" style="text;html=1;strokeColor=none;fillColor=none;align=center;verticalAlign=middle;whiteSpace=wrap;rounded=0;" vertex="1" parent="IwBESx14qaUqR3blI1wj-1">
          <mxGeometry x="410" y="430" width="40" height="20" as="geometry" />
        </mxCell>
        <mxCell id="IwBESx14qaUqR3blI1wj-22" value="Локальный веб сервер бэкапов, signalR хаб для оповещение клиентского приложения о происходящих процессах" style="text;html=1;strokeColor=none;fillColor=none;align=center;verticalAlign=middle;whiteSpace=wrap;rounded=0;" vertex="1" parent="IwBESx14qaUqR3blI1wj-1">
          <mxGeometry x="470" y="400" width="160" height="80" as="geometry" />
        </mxCell>
        <mxCell id="IwBESx14qaUqR3blI1wj-25" style="edgeStyle=orthogonalEdgeStyle;rounded=0;orthogonalLoop=1;jettySize=auto;html=1;exitX=0.75;exitY=1;exitDx=0;exitDy=0;entryX=0.75;entryY=0;entryDx=0;entryDy=0;" edge="1" parent="IwBESx14qaUqR3blI1wj-1" source="IwBESx14qaUqR3blI1wj-23" target="IwBESx14qaUqR3blI1wj-14">
          <mxGeometry relative="1" as="geometry" />
        </mxCell>
        <mxCell id="IwBESx14qaUqR3blI1wj-23" value="SQLite" style="rounded=0;whiteSpace=wrap;html=1;" vertex="1" parent="IwBESx14qaUqR3blI1wj-1">
          <mxGeometry x="340" y="210" width="120" height="60" as="geometry" />
        </mxCell>
        <mxCell id="IwBESx14qaUqR3blI1wj-26" value="EF6" style="text;html=1;strokeColor=none;fillColor=none;align=center;verticalAlign=middle;whiteSpace=wrap;rounded=0;" vertex="1" parent="IwBESx14qaUqR3blI1wj-1">
          <mxGeometry x="380" y="290" width="40" height="20" as="geometry" />
        </mxCell>
        <mxCell id="IwBESx14qaUqR3blI1wj-27" value="Локальная база данных для кэширования информации" style="text;html=1;strokeColor=none;fillColor=none;align=center;verticalAlign=middle;whiteSpace=wrap;rounded=0;" vertex="1" parent="IwBESx14qaUqR3blI1wj-1">
          <mxGeometry x="315" y="160" width="170" height="40" as="geometry" />
        </mxCell>
        <mxCell id="IwBESx14qaUqR3blI1wj-34" style="edgeStyle=orthogonalEdgeStyle;rounded=0;orthogonalLoop=1;jettySize=auto;html=1;exitX=0.25;exitY=0;exitDx=0;exitDy=0;entryX=0.25;entryY=1;entryDx=0;entryDy=0;" edge="1" parent="IwBESx14qaUqR3blI1wj-1" source="IwBESx14qaUqR3blI1wj-28" target="IwBESx14qaUqR3blI1wj-29">
          <mxGeometry relative="1" as="geometry" />
        </mxCell>
        <mxCell id="IwBESx14qaUqR3blI1wj-42" style="edgeStyle=orthogonalEdgeStyle;rounded=0;orthogonalLoop=1;jettySize=auto;html=1;exitX=0;exitY=0.75;exitDx=0;exitDy=0;entryX=1;entryY=0.75;entryDx=0;entryDy=0;dashed=1;" edge="1" parent="IwBESx14qaUqR3blI1wj-1" source="IwBESx14qaUqR3blI1wj-28" target="IwBESx14qaUqR3blI1wj-14">
          <mxGeometry relative="1" as="geometry" />
        </mxCell>
        <mxCell id="IwBESx14qaUqR3blI1wj-28" value="ASP .NET Core + Identity + &lt;br&gt;signalR Hub" style="rounded=0;whiteSpace=wrap;html=1;" vertex="1" parent="IwBESx14qaUqR3blI1wj-1">
          <mxGeometry x="670" y="340" width="120" height="60" as="geometry" />
        </mxCell>
        <mxCell id="IwBESx14qaUqR3blI1wj-35" style="edgeStyle=orthogonalEdgeStyle;rounded=0;orthogonalLoop=1;jettySize=auto;html=1;exitX=0.75;exitY=1;exitDx=0;exitDy=0;entryX=0.75;entryY=0;entryDx=0;entryDy=0;" edge="1" parent="IwBESx14qaUqR3blI1wj-1" source="IwBESx14qaUqR3blI1wj-29" target="IwBESx14qaUqR3blI1wj-28">
          <mxGeometry relative="1" as="geometry" />
        </mxCell>
        <mxCell id="IwBESx14qaUqR3blI1wj-29" value="MSSQL" style="rounded=0;whiteSpace=wrap;html=1;" vertex="1" parent="IwBESx14qaUqR3blI1wj-1">
          <mxGeometry x="670" y="210" width="120" height="60" as="geometry" />
        </mxCell>
        <mxCell id="IwBESx14qaUqR3blI1wj-33" value="" style="edgeStyle=orthogonalEdgeStyle;rounded=0;orthogonalLoop=1;jettySize=auto;html=1;" edge="1" parent="IwBESx14qaUqR3blI1wj-1" source="IwBESx14qaUqR3blI1wj-30" target="IwBESx14qaUqR3blI1wj-28">
          <mxGeometry relative="1" as="geometry" />
        </mxCell>
        <mxCell id="IwBESx14qaUqR3blI1wj-30" value="IIS" style="rounded=0;whiteSpace=wrap;html=1;" vertex="1" parent="IwBESx14qaUqR3blI1wj-1">
          <mxGeometry x="670" y="470" width="120" height="60" as="geometry" />
        </mxCell>
        <mxCell id="IwBESx14qaUqR3blI1wj-32" value="Хостит" style="text;html=1;strokeColor=none;fillColor=none;align=center;verticalAlign=middle;whiteSpace=wrap;rounded=0;" vertex="1" parent="IwBESx14qaUqR3blI1wj-1">
          <mxGeometry x="740" y="430" width="40" height="20" as="geometry" />
        </mxCell>
        <mxCell id="IwBESx14qaUqR3blI1wj-39" style="edgeStyle=orthogonalEdgeStyle;rounded=0;orthogonalLoop=1;jettySize=auto;html=1;exitX=0;exitY=0.75;exitDx=0;exitDy=0;entryX=1;entryY=0.75;entryDx=0;entryDy=0;" edge="1" parent="IwBESx14qaUqR3blI1wj-1" source="IwBESx14qaUqR3blI1wj-36" target="IwBESx14qaUqR3blI1wj-28">
          <mxGeometry relative="1" as="geometry" />
        </mxCell>
        <mxCell id="uAgrgONRgDWQFu_Yv60l-4" style="edgeStyle=orthogonalEdgeStyle;rounded=0;orthogonalLoop=1;jettySize=auto;html=1;exitX=1;exitY=0.5;exitDx=0;exitDy=0;" edge="1" parent="IwBESx14qaUqR3blI1wj-1" source="IwBESx14qaUqR3blI1wj-36" target="uAgrgONRgDWQFu_Yv60l-0">
          <mxGeometry relative="1" as="geometry" />
        </mxCell>
        <mxCell id="IwBESx14qaUqR3blI1wj-36" value="hMailServer" style="rounded=0;whiteSpace=wrap;html=1;" vertex="1" parent="IwBESx14qaUqR3blI1wj-1">
          <mxGeometry x="880" y="340" width="120" height="60" as="geometry" />
        </mxCell>
        <mxCell id="IwBESx14qaUqR3blI1wj-37" value="" style="endArrow=classic;html=1;exitX=1;exitY=0.25;exitDx=0;exitDy=0;entryX=0;entryY=0.25;entryDx=0;entryDy=0;" edge="1" parent="IwBESx14qaUqR3blI1wj-1" source="IwBESx14qaUqR3blI1wj-28" target="IwBESx14qaUqR3blI1wj-36">
          <mxGeometry width="50" height="50" relative="1" as="geometry">
            <mxPoint x="880" y="500" as="sourcePoint" />
            <mxPoint x="930" y="450" as="targetPoint" />
          </mxGeometry>
        </mxCell>
        <mxCell id="IwBESx14qaUqR3blI1wj-38" value="Почтовый сервер" style="text;html=1;strokeColor=none;fillColor=none;align=center;verticalAlign=middle;whiteSpace=wrap;rounded=0;" vertex="1" parent="IwBESx14qaUqR3blI1wj-1">
          <mxGeometry x="920" y="410" width="40" height="20" as="geometry" />
        </mxCell>
        <mxCell id="IwBESx14qaUqR3blI1wj-43" value="VPS" style="text;html=1;strokeColor=none;fillColor=none;align=center;verticalAlign=middle;whiteSpace=wrap;rounded=0;" vertex="1" parent="IwBESx14qaUqR3blI1wj-1">
          <mxGeometry x="810" y="550" width="40" height="20" as="geometry" />
        </mxCell>
        <mxCell id="IwBESx14qaUqR3blI1wj-44" value="REST API" style="text;html=1;strokeColor=none;fillColor=none;align=center;verticalAlign=middle;whiteSpace=wrap;rounded=0;" vertex="1" parent="IwBESx14qaUqR3blI1wj-1">
          <mxGeometry x="550" y="330" width="60" height="20" as="geometry" />
        </mxCell>
        <mxCell id="IwBESx14qaUqR3blI1wj-45" value="REST API" style="text;html=1;strokeColor=none;fillColor=none;align=center;verticalAlign=middle;whiteSpace=wrap;rounded=0;" vertex="1" parent="IwBESx14qaUqR3blI1wj-1">
          <mxGeometry x="260" y="330" width="60" height="20" as="geometry" />
        </mxCell>
        <mxCell id="uAgrgONRgDWQFu_Yv60l-0" value="Клиент" style="shape=umlActor;verticalLabelPosition=bottom;verticalAlign=top;html=1;outlineConnect=0;" vertex="1" parent="IwBESx14qaUqR3blI1wj-1">
          <mxGeometry x="1180" y="340" width="30" height="60" as="geometry" />
        </mxCell>
        <mxCell id="uAgrgONRgDWQFu_Yv60l-5" value="Почтовые сообщения" style="text;html=1;strokeColor=none;fillColor=none;align=center;verticalAlign=middle;whiteSpace=wrap;rounded=0;" vertex="1" parent="IwBESx14qaUqR3blI1wj-1">
          <mxGeometry x="1070" y="340" width="40" height="20" as="geometry" />
        </mxCell>
      </root>
    </mxGraphModel>
  </diagram>
</mxfile>
